<svg width="269" height="347" viewBox="0 0 269 347" fill="none" xmlns="http://www.w3.org/2000/svg">
<path d="M4.3098 169.522L4.31067 169.524C5.9581 172.427 8.73036 173.808 12.0473 173.808H165.354C168.674 173.808 171.698 172.759 174.338 170.714C177.048 168.615 178.734 165.812 179.333 162.43C179.334 162.426 179.334 162.423 179.335 162.42L202.973 33.0094L202.973 33.0072C204.396 25.1811 202.51 18.1536 197.353 12.1716C192.225 6.22081 185.63 3.19976 177.771 3.19976H123.326C118.965 3.19976 114.856 4.27999 111.044 6.42528L112.414 8.85824L111.044 6.42529C107.293 8.53653 104.291 11.3054 102.112 14.7429L4.70268 160.858C3.84199 162.149 3.28668 163.584 3.20906 165.137C3.13101 166.697 3.54622 168.175 4.3098 169.522Z" fill="#1C1B1F" stroke="white" stroke-width="5.60049"/>
<path d="M161.571 33.6848L164.235 32.8195C162.693 28.0745 155.98 28.0745 154.438 32.8195L141.315 73.2082L98.848 73.2082C93.8589 73.2082 91.7844 79.5925 95.8208 82.5251L130.177 107.487L117.054 147.875C115.513 152.62 120.943 156.566 124.98 153.634L159.336 128.672L193.693 153.634C197.729 156.566 203.16 152.62 201.619 147.875L188.703 108.126L257.347 83.1995C262.765 81.232 261.353 73.2082 255.589 73.2082H177.358L164.235 32.8195L161.571 33.6848Z" fill="url(#paint0_linear_149_3)" stroke="white" stroke-width="5.60049"/>
<path d="M21.7187 221.268C13.3159 221.268 7.49847 215.208 7.49847 206.886C7.49847 198.524 13.3159 192.423 21.7187 192.423C27.0513 192.423 31.7376 194.888 34.1615 199.574L29.2328 201.957C27.8593 198.887 25.0314 197.19 21.7187 197.19C16.4265 197.19 13.0735 201.432 13.0735 206.886C13.0735 212.38 16.5477 216.582 21.8803 216.582C26.0414 216.582 29.2328 214.077 30.0408 210.199H21.7591V205.432H35.4946C35.535 205.997 35.5754 206.644 35.5754 207.209C35.5754 215.37 29.8792 221.268 21.7187 221.268ZM48.2268 221.268C41.6822 221.268 37.2384 216.42 37.2384 209.754C37.2384 203.008 41.7226 198.12 48.2672 198.12C54.9733 198.12 58.69 202.361 58.69 209.229C58.69 209.916 58.6496 210.522 58.5688 211.209H42.0054C42.5306 214.562 44.9545 216.945 48.4287 216.945C50.9738 216.945 52.9938 215.653 54.1249 213.269L58.2052 215.289C56.266 219.329 52.6706 221.268 48.2268 221.268ZM42.2074 207.371H54.1653C53.6401 204.301 51.6202 202.442 48.2672 202.442C45.1565 202.442 42.975 204.462 42.2074 207.371ZM60.7648 220.622V198.766H65.6126C65.6126 200.059 65.6126 200.826 65.5722 202.038H65.653C66.9458 199.736 69.3697 198.281 72.2784 198.281C77.4898 198.281 80.1561 201.957 80.1561 206.684V220.622H75.3082V208.017C75.3082 204.907 73.6923 202.685 70.5412 202.685C67.3093 202.685 65.6126 205.189 65.6126 208.219V220.622H60.7648ZM93.2411 221.268C86.6965 221.268 82.2527 216.42 82.2527 209.754C82.2527 203.008 86.7369 198.12 93.2815 198.12C99.9876 198.12 103.704 202.361 103.704 209.229C103.704 209.916 103.664 210.522 103.583 211.209H87.0197C87.5449 214.562 89.9688 216.945 93.443 216.945C95.9881 216.945 98.0081 215.653 99.1392 213.269L103.219 215.289C101.28 219.329 97.6849 221.268 93.2411 221.268ZM87.2217 207.371H99.1796C98.6544 204.301 96.6345 202.442 93.2815 202.442C90.1708 202.442 87.9893 204.462 87.2217 207.371ZM105.779 220.622V198.766H110.627C110.627 200.059 110.627 200.948 110.587 202.159H110.627C111.879 199.857 113.899 198.685 116.283 198.685C116.687 198.685 117.05 198.726 117.454 198.766V203.25H115.919C112.445 203.25 110.627 205.836 110.627 209.148V220.622H105.779ZM118.995 220.622V198.766H123.843V220.622H118.995ZM121.419 196.463C119.601 196.463 118.349 195.251 118.349 193.555C118.349 191.898 119.601 190.686 121.419 190.686C123.237 190.686 124.449 191.898 124.449 193.555C124.449 195.251 123.237 196.463 121.419 196.463ZM137.073 221.268C130.447 221.268 126.044 216.339 126.044 209.633C126.044 202.967 130.447 198.12 137.073 198.12C141.638 198.12 145.072 200.382 146.93 204.543L142.567 206.482C141.476 204.099 139.658 202.523 137.073 202.523C133.235 202.523 130.851 205.634 130.851 209.633C130.851 213.673 133.195 216.824 137.073 216.824C139.699 216.824 141.517 215.208 142.567 212.784L146.97 214.683C145.112 218.884 141.678 221.268 137.073 221.268ZM14.649 260.622V237.918H6.60971V233.11H27.8189V237.918H19.7796V260.622H14.649ZM29.4008 260.622V238.766H34.2486C34.2486 240.059 34.2486 240.948 34.2082 242.159H34.2486C35.5009 239.857 37.5208 238.685 39.9044 238.685C40.3083 238.685 40.6719 238.726 41.0759 238.766V243.25H39.5408C36.0665 243.25 34.2486 245.836 34.2486 249.148V260.622H29.4008ZM52.0703 261.187C46.2529 261.187 42.0515 256.38 42.0515 249.795C42.0515 243.21 46.4145 238.322 52.0299 238.322C55.2618 238.322 57.6857 239.534 59.14 242.038H59.2208C59.1804 240.907 59.1804 240.099 59.1804 238.766H64.0282V260.622H59.1804C59.1804 259.288 59.1804 258.723 59.2208 257.471H59.14C57.6049 259.814 54.9386 261.187 52.0703 261.187ZM53.0803 256.784C56.8777 256.784 59.342 253.915 59.342 249.754C59.342 245.634 56.8373 242.725 53.0803 242.725C49.404 242.725 46.8993 245.795 46.8993 249.795C46.8993 253.754 49.404 256.784 53.0803 256.784ZM74.4775 260.662L65.7111 238.847V238.766H71.0033L76.9419 254.764L82.84 238.766H88.1726V238.847L79.4062 260.662H74.4775ZM100.263 261.268C93.7189 261.268 89.2751 256.42 89.2751 249.754C89.2751 243.008 93.7593 238.12 100.304 238.12C107.01 238.12 110.727 242.361 110.727 249.229C110.727 249.916 110.686 250.522 110.605 251.209H94.0421C94.5673 254.562 96.9912 256.945 100.465 256.945C103.011 256.945 105.03 255.653 106.162 253.269L110.242 255.289C108.303 259.329 104.707 261.268 100.263 261.268ZM94.2441 247.371H106.202C105.677 244.301 103.657 242.442 100.304 242.442C97.1932 242.442 95.0116 244.462 94.2441 247.371ZM112.801 260.622V231.333H117.649V260.622H112.801ZM6.8925 300.622L18.0021 273.07H23.3347L34.4039 300.622H28.5865L26.1626 293.915H14.8914L12.3463 300.622H6.8925ZM16.6689 289.31H24.4658L20.6684 278.928L16.6689 289.31ZM46.4457 308.661C42.2039 308.661 38.9316 307.368 36.5077 303.773L40.386 301.066C41.7999 303.369 43.7391 304.419 46.4054 304.419C50.324 304.419 52.8287 301.955 52.8287 298.319C52.8287 297.43 52.8287 297.107 52.8691 296.218H52.7883C51.4552 298.682 48.6273 300.339 45.355 300.339C39.578 300.339 35.6998 295.693 35.6998 289.391C35.6998 283.089 39.7396 278.281 45.7186 278.281C48.8293 278.281 51.334 279.493 52.7883 281.998H52.8691C52.8287 280.948 52.8287 280.059 52.8287 278.766H57.7169V298.036C57.7169 304.54 53.1923 308.661 46.4457 308.661ZM46.7689 295.935C50.4856 295.935 52.9903 293.35 52.9903 289.391C52.9903 285.432 50.526 282.685 46.7689 282.685C43.0119 282.685 40.588 285.634 40.588 289.391C40.588 293.148 43.0927 295.935 46.7689 295.935ZM70.7931 301.268C64.2485 301.268 59.8047 296.42 59.8047 289.754C59.8047 283.008 64.2889 278.12 70.8335 278.12C77.5396 278.12 81.2563 282.361 81.2563 289.229C81.2563 289.916 81.2159 290.522 81.1351 291.209H64.5717C65.0969 294.562 67.5208 296.945 70.9951 296.945C73.5402 296.945 75.5601 295.653 76.6913 293.269L80.7715 295.289C78.8324 299.329 75.2369 301.268 70.7931 301.268ZM64.7737 287.371H76.7317C76.2065 284.301 74.1866 282.442 70.8335 282.442C67.7228 282.442 65.5413 284.462 64.7737 287.371ZM83.3311 300.622V278.766H88.1789C88.1789 280.059 88.1789 280.826 88.1385 282.038H88.2193C89.5121 279.736 91.936 278.281 94.8447 278.281C100.056 278.281 102.722 281.957 102.722 286.684V300.622H97.8746V288.017C97.8746 284.907 96.2586 282.685 93.1076 282.685C89.8757 282.685 88.1789 285.189 88.1789 288.219V300.622H83.3311ZM115.848 301.268C109.222 301.268 104.819 296.339 104.819 289.633C104.819 282.967 109.222 278.12 115.848 278.12C120.413 278.12 123.847 280.382 125.705 284.543L121.342 286.482C120.251 284.099 118.433 282.523 115.848 282.523C112.01 282.523 109.626 285.634 109.626 289.633C109.626 293.673 111.97 296.824 115.848 296.824C118.474 296.824 120.292 295.208 121.342 292.784L125.745 294.683C123.887 298.884 120.453 301.268 115.848 301.268ZM131.759 308.055L135.031 300.339L126.467 278.766H131.799L137.657 294.804L143.636 278.766H149.009L137.132 308.055H131.759ZM157.224 300.622V278.766H162.072V300.622H157.224ZM159.648 276.463C157.83 276.463 156.578 275.251 156.578 273.555C156.578 271.898 157.83 270.686 159.648 270.686C161.466 270.686 162.678 271.898 162.678 273.555C162.678 275.251 161.466 276.463 159.648 276.463ZM164.838 300.622V278.766H169.686C169.686 280.059 169.686 280.826 169.646 282.038H169.726C171.019 279.736 173.443 278.281 176.352 278.281C181.563 278.281 184.229 281.957 184.229 286.684V300.622H179.382V288.017C179.382 284.907 177.766 282.685 174.615 282.685C171.383 282.685 169.686 285.189 169.686 288.219V300.622H164.838ZM17.9617 340.662L6.8925 313.11H12.6695L20.6684 333.713L28.8693 313.11H34.4039L23.3347 340.662H17.9617ZM36.2653 340.622V318.766H41.1132V340.622H36.2653ZM38.6892 316.463C36.8713 316.463 35.619 315.251 35.619 313.555C35.619 311.898 36.8713 310.686 38.6892 310.686C40.5072 310.686 41.7191 311.898 41.7191 313.555C41.7191 315.251 40.5072 316.463 38.6892 316.463ZM54.3023 341.268C47.7578 341.268 43.3139 336.42 43.3139 329.754C43.3139 323.008 47.7982 318.12 54.3427 318.12C61.0488 318.12 64.7655 322.361 64.7655 329.229C64.7655 329.916 64.7251 330.522 64.6443 331.209H48.0809C48.6061 334.562 51.03 336.945 54.5043 336.945C57.0494 336.945 59.0693 335.653 60.2005 333.269L64.2807 335.289C62.3416 339.329 58.7461 341.268 54.3023 341.268ZM48.2829 327.371H60.2409C59.7157 324.301 57.6958 322.442 54.3427 322.442C51.232 322.442 49.0505 324.462 48.2829 327.371ZM69.5066 340.622V323.25H66.2344V318.766H69.5066V313.11H74.3545V318.766H79.2023V323.25H74.3545V340.622H69.5066ZM80.7273 340.622V318.766H85.5751C85.5751 320.059 85.5751 320.826 85.5347 322.038H85.6155C86.9083 319.736 89.3322 318.281 92.2409 318.281C97.4523 318.281 100.119 321.957 100.119 326.684V340.622H95.2708V328.017C95.2708 324.907 93.6548 322.685 90.5037 322.685C87.2719 322.685 85.5751 325.189 85.5751 328.219V340.622H80.7273ZM112.234 341.187C106.417 341.187 102.215 336.38 102.215 329.795C102.215 323.21 106.578 318.322 112.194 318.322C115.425 318.322 117.849 319.534 119.304 322.038H119.385C119.344 320.907 119.344 320.099 119.344 318.766H124.192V340.622H119.344C119.344 339.288 119.344 338.723 119.385 337.471H119.304C117.769 339.814 115.102 341.187 112.234 341.187ZM113.244 336.784C117.041 336.784 119.506 333.915 119.506 329.754C119.506 325.634 117.001 322.725 113.244 322.725C109.568 322.725 107.063 325.795 107.063 329.795C107.063 333.754 109.568 336.784 113.244 336.784ZM126.925 340.622V318.766H131.773C131.773 320.14 131.773 320.746 131.733 322.038H131.813C133.187 319.614 135.409 318.281 138.196 318.281C141.307 318.281 143.287 319.816 144.256 321.957H144.337C145.67 319.614 148.054 318.281 150.962 318.281C156.376 318.281 158.557 322.079 158.557 326.684V340.622H153.669V327.775C153.669 324.785 152.255 322.644 149.468 322.644C146.64 322.644 145.145 324.785 145.145 327.775V340.622H140.297V327.775C140.297 324.785 138.843 322.644 136.217 322.644C133.51 322.644 131.773 325.109 131.773 327.896V340.622H126.925Z" fill="#1C1B1F"/>
<defs>
<linearGradient id="paint0_linear_149_3" x1="156.86" y1="100.515" x2="267.733" y2="71.4337" gradientUnits="userSpaceOnUse">
<stop stop-color="#1E1E1E"/>
<stop offset="1" stop-color="#C4C4C4"/>
</linearGradient>
</defs>
</svg>
