<svg width="1939" height="1938" viewBox="0 0 1939 1938" fill="none" xmlns="http://www.w3.org/2000/svg">
<path d="M1472.32 576.451L1472.33 576.443L1472.33 576.435C1482.39 521.075 1469.05 471.364 1432.57 429.048C1396.3 386.956 1349.65 365.587 1294.06 365.587H908.929C878.078 365.587 849.013 373.228 822.052 388.403C795.519 403.337 774.281 422.923 758.873 447.238L69.8261 1480.81C63.7379 1489.94 59.8098 1500.09 59.2607 1511.08C58.7086 1522.12 61.6457 1532.57 67.047 1542.1L67.0531 1542.11C78.7066 1562.65 98.3166 1572.41 121.78 1572.41H1206.22C1229.7 1572.41 1251.1 1565 1269.77 1550.53C1288.95 1535.68 1300.87 1515.84 1305.11 1491.91C1305.11 1491.9 1305.12 1491.88 1305.12 1491.86L1472.32 576.451Z" fill="#1E1E1E" stroke="white" stroke-width="39.6161"/>
<path d="M1198.31 575.105C1187.4 541.541 1139.92 541.541 1129.01 575.105L1036.18 860.802H735.782C700.49 860.802 685.816 905.963 714.368 926.707L957.396 1103.28L864.567 1388.97C853.662 1422.54 892.078 1450.45 920.63 1429.71L1163.66 1253.14L1406.69 1429.71C1435.24 1450.45 1473.65 1422.54 1462.75 1388.97L1371.39 1107.8L1856.95 931.477C1895.28 917.56 1885.29 860.802 1844.52 860.802H1291.13L1198.31 575.105Z" fill="url(#paint0_linear_201_2)" stroke="white" stroke-width="39.6161"/>
<defs>
<linearGradient id="paint0_linear_201_2" x1="1146.14" y1="1053.96" x2="1930.42" y2="848.25" gradientUnits="userSpaceOnUse">
<stop stop-color="#1E1E1E"/>
<stop offset="1" stop-color="#C4C4C4"/>
</linearGradient>
</defs>
</svg>
